<mxfile host="app.diagrams.net" agent="Mozilla/5.0 (Windows NT 10.0; Win64; x64) AppleWebKit/537.36 (KHTML, like Gecko) Chrome/128.0.0.0 Safari/537.36" version="24.7.12">
  <diagram name="Page-1" id="oaBUMCkYKFXZNnD1u8Qq">
    <mxGraphModel dx="880" dy="434" grid="1" gridSize="10" guides="1" tooltips="1" connect="1" arrows="1" fold="1" page="1" pageScale="1" pageWidth="850" pageHeight="1100" math="0" shadow="0">
      <root>
        <mxCell id="0" />
        <mxCell id="1" parent="0" />
        <mxCell id="mbxzEVwa3L6vEaIT6svo-39" style="edgeStyle=orthogonalEdgeStyle;rounded=0;orthogonalLoop=1;jettySize=auto;html=1;entryX=1;entryY=0.75;entryDx=0;entryDy=0;" edge="1" parent="1" source="mbxzEVwa3L6vEaIT6svo-20" target="mbxzEVwa3L6vEaIT6svo-21">
          <mxGeometry relative="1" as="geometry" />
        </mxCell>
        <mxCell id="mbxzEVwa3L6vEaIT6svo-42" style="edgeStyle=orthogonalEdgeStyle;rounded=0;orthogonalLoop=1;jettySize=auto;html=1;entryX=0;entryY=0.5;entryDx=0;entryDy=0;" edge="1" parent="1" source="mbxzEVwa3L6vEaIT6svo-20" target="mbxzEVwa3L6vEaIT6svo-36">
          <mxGeometry relative="1" as="geometry" />
        </mxCell>
        <mxCell id="mbxzEVwa3L6vEaIT6svo-20" value="HTML" style="ellipse;whiteSpace=wrap;html=1;" vertex="1" parent="1">
          <mxGeometry x="320" y="20" width="120" height="80" as="geometry" />
        </mxCell>
        <mxCell id="mbxzEVwa3L6vEaIT6svo-21" value="HEAD" style="rounded=0;whiteSpace=wrap;html=1;" vertex="1" parent="1">
          <mxGeometry x="10" y="40" width="120" height="60" as="geometry" />
        </mxCell>
        <mxCell id="mbxzEVwa3L6vEaIT6svo-54" value="" style="edgeStyle=orthogonalEdgeStyle;rounded=0;orthogonalLoop=1;jettySize=auto;html=1;" edge="1" parent="1" source="mbxzEVwa3L6vEaIT6svo-22" target="mbxzEVwa3L6vEaIT6svo-31">
          <mxGeometry relative="1" as="geometry" />
        </mxCell>
        <mxCell id="mbxzEVwa3L6vEaIT6svo-55" value="" style="edgeStyle=orthogonalEdgeStyle;rounded=0;orthogonalLoop=1;jettySize=auto;html=1;entryX=0.5;entryY=0;entryDx=0;entryDy=0;" edge="1" parent="1" source="mbxzEVwa3L6vEaIT6svo-22" target="mbxzEVwa3L6vEaIT6svo-24">
          <mxGeometry relative="1" as="geometry" />
        </mxCell>
        <mxCell id="mbxzEVwa3L6vEaIT6svo-56" style="edgeStyle=orthogonalEdgeStyle;rounded=0;orthogonalLoop=1;jettySize=auto;html=1;entryX=1;entryY=0;entryDx=0;entryDy=0;" edge="1" parent="1" source="mbxzEVwa3L6vEaIT6svo-22" target="mbxzEVwa3L6vEaIT6svo-23">
          <mxGeometry relative="1" as="geometry" />
        </mxCell>
        <mxCell id="mbxzEVwa3L6vEaIT6svo-22" value="main" style="rounded=0;whiteSpace=wrap;html=1;" vertex="1" parent="1">
          <mxGeometry x="520" y="150" width="120" height="60" as="geometry" />
        </mxCell>
        <mxCell id="mbxzEVwa3L6vEaIT6svo-23" value="div(search form)" style="rounded=0;whiteSpace=wrap;html=1;" vertex="1" parent="1">
          <mxGeometry x="365" y="280" width="120" height="60" as="geometry" />
        </mxCell>
        <mxCell id="mbxzEVwa3L6vEaIT6svo-24" value="div(button)" style="rounded=0;whiteSpace=wrap;html=1;" vertex="1" parent="1">
          <mxGeometry x="650" y="280" width="120" height="60" as="geometry" />
        </mxCell>
        <mxCell id="mbxzEVwa3L6vEaIT6svo-28" value="div(language option)" style="rounded=0;whiteSpace=wrap;html=1;" vertex="1" parent="1">
          <mxGeometry x="660" y="90" width="120" height="60" as="geometry" />
        </mxCell>
        <mxCell id="mbxzEVwa3L6vEaIT6svo-31" value="div(logo)" style="rounded=0;whiteSpace=wrap;html=1;" vertex="1" parent="1">
          <mxGeometry x="510" y="280" width="120" height="60" as="geometry" />
        </mxCell>
        <mxCell id="mbxzEVwa3L6vEaIT6svo-32" value="a(multiple task)" style="rounded=0;whiteSpace=wrap;html=1;" vertex="1" parent="1">
          <mxGeometry x="230" y="340" width="120" height="50" as="geometry" />
        </mxCell>
        <mxCell id="mbxzEVwa3L6vEaIT6svo-33" value="NAV" style="rounded=0;whiteSpace=wrap;html=1;" vertex="1" parent="1">
          <mxGeometry x="190" y="240" width="120" height="60" as="geometry" />
        </mxCell>
        <mxCell id="mbxzEVwa3L6vEaIT6svo-34" value="IMG" style="rounded=0;whiteSpace=wrap;html=1;" vertex="1" parent="1">
          <mxGeometry x="80" y="340" width="120" height="60" as="geometry" />
        </mxCell>
        <mxCell id="mbxzEVwa3L6vEaIT6svo-44" value="" style="edgeStyle=orthogonalEdgeStyle;rounded=0;orthogonalLoop=1;jettySize=auto;html=1;" edge="1" parent="1" source="mbxzEVwa3L6vEaIT6svo-35" target="mbxzEVwa3L6vEaIT6svo-34">
          <mxGeometry relative="1" as="geometry" />
        </mxCell>
        <mxCell id="mbxzEVwa3L6vEaIT6svo-35" value="HEADER" style="rounded=0;whiteSpace=wrap;html=1;" vertex="1" parent="1">
          <mxGeometry x="350" y="120" width="120" height="60" as="geometry" />
        </mxCell>
        <mxCell id="mbxzEVwa3L6vEaIT6svo-57" value="" style="edgeStyle=orthogonalEdgeStyle;rounded=0;orthogonalLoop=1;jettySize=auto;html=1;" edge="1" parent="1" source="mbxzEVwa3L6vEaIT6svo-36" target="mbxzEVwa3L6vEaIT6svo-22">
          <mxGeometry relative="1" as="geometry" />
        </mxCell>
        <mxCell id="mbxzEVwa3L6vEaIT6svo-58" value="" style="edgeStyle=orthogonalEdgeStyle;rounded=0;orthogonalLoop=1;jettySize=auto;html=1;" edge="1" parent="1" source="mbxzEVwa3L6vEaIT6svo-36" target="mbxzEVwa3L6vEaIT6svo-28">
          <mxGeometry relative="1" as="geometry" />
        </mxCell>
        <mxCell id="mbxzEVwa3L6vEaIT6svo-36" value="BODY&amp;nbsp;" style="rounded=0;whiteSpace=wrap;html=1;" vertex="1" parent="1">
          <mxGeometry x="490" y="30" width="120" height="60" as="geometry" />
        </mxCell>
        <mxCell id="mbxzEVwa3L6vEaIT6svo-37" value="TITLE" style="rounded=0;whiteSpace=wrap;html=1;" vertex="1" parent="1">
          <mxGeometry x="10" y="150" width="120" height="60" as="geometry" />
        </mxCell>
        <mxCell id="mbxzEVwa3L6vEaIT6svo-40" style="edgeStyle=orthogonalEdgeStyle;rounded=0;orthogonalLoop=1;jettySize=auto;html=1;exitX=0.75;exitY=1;exitDx=0;exitDy=0;entryX=0.642;entryY=-0.067;entryDx=0;entryDy=0;entryPerimeter=0;" edge="1" parent="1" source="mbxzEVwa3L6vEaIT6svo-21" target="mbxzEVwa3L6vEaIT6svo-37">
          <mxGeometry relative="1" as="geometry">
            <Array as="points">
              <mxPoint x="97" y="100" />
              <mxPoint x="97" y="146" />
            </Array>
          </mxGeometry>
        </mxCell>
        <mxCell id="mbxzEVwa3L6vEaIT6svo-48" style="edgeStyle=orthogonalEdgeStyle;rounded=0;orthogonalLoop=1;jettySize=auto;html=1;entryX=0.75;entryY=0;entryDx=0;entryDy=0;" edge="1" parent="1" source="mbxzEVwa3L6vEaIT6svo-35" target="mbxzEVwa3L6vEaIT6svo-33">
          <mxGeometry relative="1" as="geometry">
            <mxPoint x="270" y="220" as="targetPoint" />
          </mxGeometry>
        </mxCell>
        <mxCell id="mbxzEVwa3L6vEaIT6svo-52" style="edgeStyle=orthogonalEdgeStyle;rounded=0;orthogonalLoop=1;jettySize=auto;html=1;entryX=0.867;entryY=0.05;entryDx=0;entryDy=0;entryPerimeter=0;" edge="1" parent="1" source="mbxzEVwa3L6vEaIT6svo-35" target="mbxzEVwa3L6vEaIT6svo-32">
          <mxGeometry relative="1" as="geometry" />
        </mxCell>
        <mxCell id="mbxzEVwa3L6vEaIT6svo-59" style="edgeStyle=orthogonalEdgeStyle;rounded=0;orthogonalLoop=1;jettySize=auto;html=1;entryX=0.892;entryY=0.067;entryDx=0;entryDy=0;entryPerimeter=0;" edge="1" parent="1" source="mbxzEVwa3L6vEaIT6svo-36" target="mbxzEVwa3L6vEaIT6svo-35">
          <mxGeometry relative="1" as="geometry" />
        </mxCell>
      </root>
    </mxGraphModel>
  </diagram>
</mxfile>
